# xmcd
#
# Track frame offsets:
#	150
#	11850
#	24206
#	34123
#	47193
#	59562
#	71809
#	83669
#	96547
#	106707
#	115996
#	125164
#	135498
#	147218
#	159085
#	171662
#	182252
#	194242
#	206206
#	218247
#	229950
#	241238
#	253451
#	265203
#	277024
#	289079
#	300679
#	309660
#	321182
#	332648
#
# Disc length: 4580 seconds
# Revision: 1
# Processed by: cddbd v1.5.2PL0 Copyright (c) Steve Scherf et al.
# Submitted via: dBpowerAMP V12.0
#
DISCID=d411e21e
DTITLE=Various Artist - Voodoo Voodoo (Feisty Fifties Females) Disc2
DYEAR=2014
DGENRE=R&B
TTITLE0=Carol Jarvis - Little Red Rooster
TTITLE1=Margie Day - Snatchin' It Back
TTITLE2=Ella Johnson - What A Day
TTITLE3=Dakota Staton - Don't Mean Maybe
TTITLE4=Jaye P. Morgan - Baby, Don't Do It
TTITLE5=Dolores Ware - Thrill-A-Dill
TTITLE6=Rose Marie McCoy - Dippin' In My Business
TTITLE7=Little Esther - T'aint Whatcha Say, It's Whatcha Do
TTITLE8=Camille Howard - I Tried To Tell You
TTITLE9=Dolly Cooper - Tell Me, Tell Me
TTITLE10=Vicky Lee - Goin' Back Home To Mama
TTITLE11=Marie Knight - Grasshopper Baby
TTITLE12=Eunice Davis - Get Your Enjoys
TTITLE13=Betty Jean Morris - Shack Daddy
TTITLE14=Ella Mae Morse - How Can You Leave A Man Like This
TTITLE15=Kay Starr - Kay's Lament
TTITLE16=Dinah Washington - New Blow-Top Blues
TTITLE17=Ruth Brown - What'd I Say
TTITLE18=Zilla Mays - Take Your Time
TTITLE19=Bertice Reading - I Gotta Know
TTITLE20=Sarah McLawler - Ready, Willin' And Able
TTITLE21=Margie Day - Stubborn As A Mule
TTITLE22=Big Maybelle - That's A Pretty Good Love
TTITLE23=Dolly Cooper - Ay La Bah
TTITLE24=Willie Mae Thornton - My Man Called Me
TTITLE25=Mildred Jones - Mr Thrill
TTITLE26=Bunny Paul - Leave My Heart Alone
TTITLE27=Mabel Scott - Shut-Eye
TTITLE28=Paula Watson - I Love To Ride
TTITLE29=Linda Hayes - Atomic Baby
EXTD=
EXTT0=
EXTT1=
EXTT2=
EXTT3=
EXTT4=
EXTT5=
EXTT6=
EXTT7=
EXTT8=
EXTT9=
EXTT10=
EXTT11=
EXTT12=
EXTT13=
EXTT14=
EXTT15=
EXTT16=
EXTT17=
EXTT18=
EXTT19=
EXTT20=
EXTT21=
EXTT22=
EXTT23=
EXTT24=
EXTT25=
EXTT26=
EXTT27=
EXTT28=
EXTT29=
PLAYORDER=
